<svg xmlns="http://www.w3.org/2000/svg" xmlns:xlink="http://www.w3.org/1999/xlink" version="1.1"  x="0px" y="0px" width="32" height="32" viewBox="0 0 24 24" style="enable-background:new 0 0 24 24;" xml:space="preserve" preserveAspectRatio="none" viewbox="0 0 32 32">

<rect class="st2" width="24" height="24" style="fill:none;;"></rect>
<path id="58128982_shock_x5F_color_focus" class="stshockcolor" d="M12,2C6.48,2,2,6.48,2,12c0,5.52,4.48,10,10,10c5.52,0,10-4.48,10-10  C22,6.48,17.52,2,12,2z" style="fill: rgb(41, 246, 118);" data-st="fill:#66BB6A;;"></path>
<path class="st0" d="M12,2C6.49,2,2,6.49,2,12s4.49,10,10,10s10-4.49,10-10S17.51,2,12,2z M12,20c-4.42,0-8-3.59-8-8  c0-4.42,3.58-8,8-8c4.41,0,8,3.58,8,8C20,16.41,16.41,20,12,20z" style="opacity:0.2;fill:#FFFFFF;;"></path>
<polygon class="st1" points="17,13 13,13 13,17 11,17 11,13 7,13 7,11 11,11 11,7 13,7 13,11 17,11 " style="fill:#FFFFFF;;"></polygon>
</svg>