<svg version="1.1"  xmlns="http://www.w3.org/2000/svg" xmlns:xlink="http://www.w3.org/1999/xlink" x="0px" y="0px" width="32" height="32" viewBox="0 0 48 48" enable-background="new 0 0 48 48" xml:space="preserve" preserveAspectRatio="none" style="fill: rgb(37, 231, 255);" viewbox="0 0 32 32">
<path d="M41.846,23.229c-0.092-0.222-0.227-0.432-0.404-0.616c0,0,0,0,0,0c-0.01-0.01-0.02-0.021-0.03-0.031L29.414,10.586
	c-0.781-0.781-2.047-0.781-2.828,0c-0.781,0.78-0.781,2.048,0,2.828L35.172,22H6c-1.104,0-2,0.896-2,2s0.896,2,2,2h29.172
	l-8.586,8.586c-0.781,0.781-0.781,2.047,0,2.828s2.047,0.781,2.828,0l11.997-11.997c0.011-0.01,0.021-0.021,0.03-0.03v-0.001
	c0.178-0.184,0.313-0.394,0.404-0.615C42.045,24.296,42.045,23.704,41.846,23.229z" style="fill: rgb(37, 231, 255);"></path>
</svg>