<svg xmlns="http://www.w3.org/2000/svg" xmlns:xlink="http://www.w3.org/1999/xlink" version="1.1"  x="0px" y="0px" width="32" height="32" viewBox="0 0 24 24" style="enable-background:new 0 0 24 24;" xml:space="preserve" preserveAspectRatio="none" viewbox="0 0 32 32">

<rect class="st3" width="24" height="24" style="fill:none;;"></rect>
<path id="58128993_shock_x5F_color_focus" class="stshockcolor" d="M21.486,2.515c-0.687-0.686-1.707-0.579-2.486,0C17,4,13.958,6.042,12,8  c-1.48,1.479-3.926,5.477-3.926,5.477l2.45,2.45c0,0,3.998-2.446,5.476-3.927c1.958-1.958,4-5,5.486-7  C22.064,4.222,22.172,3.201,21.486,2.515z" style="fill: rgb(68, 222, 255);" data-st="fill:#E54D25;;"></path>
<path class="st2" d="M6,15c-1.66,0-2.491,0.82-2.942,2.418C2.628,18.939,2.625,19.625,1,20.407C1.92,21.38,3.49,22,5,22  c2.21,0,4-1.563,4-3.719C9,16.389,7.66,15,6,15z" style="fill:#FFA000;;"></path>
<path class="st1" d="M16,12c-1.479,1.48-5.476,3.927-5.476,3.927l-2.45-2.45c0,0,2.446-3.998,3.926-5.477L16,12z" style="opacity:0.2;fill:#FFFFFF;;"></path>
</svg>