<svg xmlns="http://www.w3.org/2000/svg" xmlns:xlink="http://www.w3.org/1999/xlink" version="1.1"  x="0px" y="0px" width="32" height="32" viewBox="0 0 24 24" style="enable-background:new 0 0 24 24;" xml:space="preserve" preserveAspectRatio="none" viewbox="0 0 32 32">

<rect class="st3" width="24" height="24" style="fill:none;;"></rect>
<path id="58129001_shock_x5F_color_focus" class="stshockcolor" d="M12,2C6.48,2,2,6.48,2,12c0,5.52,4.48,10,10,10c5.52,0,10-4.48,10-10  C22,6.48,17.52,2,12,2z" style="fill: rgb(255, 65, 101);" data-st="fill:#EF4538;;"></path>
<path class="st0" d="M12,2C6.49,2,2,6.49,2,12s4.49,10,10,10s10-4.49,10-10S17.51,2,12,2z M12,20c-4.42,0-8-3.59-8-8  c0-4.42,3.58-8,8-8c4.41,0,8,3.58,8,8C20,16.41,16.41,20,12,20z" style="opacity:0.3;fill:#FFFFFF;;"></path>
<polygon class="st2" points="16.242,9.171 13.414,12 16.242,14.828 14.828,16.242 12,13.414 9.171,16.242 7.757,14.828 10.586,12   7.757,9.171 9.171,7.757 12,10.586 14.828,7.757 " style="fill:#FFFFFF;;"></polygon>
</svg>