<svg xmlns="http://www.w3.org/2000/svg" xmlns:xlink="http://www.w3.org/1999/xlink" version="1.1"  x="0px" y="0px" width="32" height="32" viewBox="0 0 24 24" style="enable-background:new 0 0 24 24;" xml:space="preserve" preserveAspectRatio="none" viewbox="0 0 32 32">

<rect class="st2" width="24" height="24" style="fill:none;;"></rect>
<path id="58129010_shock_x5F_color_focus" class="stshockcolor" d="M20,20c0,1.104-0.896,2-2,2H6c-1.104,0-2-0.896-2-2V4c0-1.104,0.896-2,2-2h8l6,6V20z" style="fill: rgb(42, 239, 255);" data-st="fill:#B0BEC5;;"></path>
<path class="st0" d="M20,8v12c0,1.1-0.9,2-2,2H6c-1.1,0-2-0.9-2-2V4c0-1.1,0.9-2,2-2h8l0.01,4c0,1.1,0.891,2,1.99,2H20z" style="opacity:0.6;fill:#FFFFFF;;"></path>
</svg>