<svg xmlns="http://www.w3.org/2000/svg" xmlns:xlink="http://www.w3.org/1999/xlink" version="1.1"  x="0px" y="0px" width="32" height="32" viewBox="0 0 24 24" style="enable-background:new 0 0 24 24;" xml:space="preserve" preserveAspectRatio="none" viewbox="0 0 32 32">

<rect x="6" y="4" class="st1" width="14" height="2" style="fill:#FFFFFF;;"></rect>
<path id="581045045_shock_x5F_color" class="stshockcolor" d="M6,6h14v14c0,1.1-0.9,2-2,2H6c-1.1,0-2-0.9-2-2V4c0-1.1,0.9-2,2-2h12c1.1,0,2,0.9,2,2H6V6  z" style="fill: rgb(37, 224, 255);" data-st="fill:#A1887F;;"></path>
<path class="st0" d="M20,4H6V2h12C18,2,20,2,20,4z M6,6v16h12c1.1,0,2-0.9,2-2V6H6z" style="opacity:0.3;fill:#FFFFFF;;"></path>
</svg>