<svg xmlns="http://www.w3.org/2000/svg" xmlns:xlink="http://www.w3.org/1999/xlink" version="1.1"  x="0px" y="0px" width="32" height="32" viewBox="0 0 24 24" style="enable-background:new 0 0 24 24;" xml:space="preserve" preserveAspectRatio="none" viewbox="0 0 32 32">

<rect class="st1" width="24" height="24" style="fill:none;;"></rect>
<path id="58439739_shock_x5F_color_focus" class="stshockcolor" d="M22,6c0-1.104-0.896-2-2-2H4C2.896,4,2,4.896,2,6v12c0,1.104,0.896,2,2,2h16  c1.104,0,2-0.896,2-2V6z" style="fill: rgb(27, 184, 255);" data-st="fill:#AB47BC;;"></path>
<path class="st2" d="M7.5,12C6.119,12,5,10.881,5,9.5S6.119,7,7.5,7S10,8.119,10,9.5S8.881,12,7.5,12z M7.5,13c0,0-3.5,0-3.5,2  s0,2,0,2h7c0,0,0,0,0-2S7.5,13,7.5,13z M20,9h-7v2h7V9z M20,13h-7v2h7V13z" style="opacity:0.4;fill:#FFFFFF;;"></path>
</svg>