<svg xmlns="http://www.w3.org/2000/svg" xmlns:xlink="http://www.w3.org/1999/xlink" version="1.1"  x="0px" y="0px" width="32" height="32" viewBox="0 0 24 24" style="enable-background:new 0 0 24 24;" xml:space="preserve" preserveAspectRatio="none" viewbox="0 0 32 32">

<rect class="st2" width="24" height="24" style="fill:none;;"></rect>
<path id="58646183_shock_x5F_color_focus" class="stshockcolor" d="M21.4,11.57l-8.97-9.02C12.06,2.18,11.56,2,11.01,2h-7C3.45,2,2.94,2.18,2.58,2.56  L2.57,2.57C2.23,2.93,2.01,3.4,2,3.94v7c0,0.55,0.21,1.05,0.58,1.42l8.98,9.02c0.35,0.36,0.85,0.58,1.4,0.58  c0.55,0.01,1.05-0.21,1.41-0.58l3.479-3.46l0.04-0.03l3.5-3.489c0.37-0.36,0.591-0.87,0.591-1.41  C21.99,12.44,21.75,11.93,21.4,11.57z M5.5,7C4.67,7,4,6.33,4,5.5S4.67,4,5.5,4S7,4.67,7,5.5S6.33,7,5.5,7z" style="fill: rgb(255, 133, 22);" data-st="fill:#F4511E;;"></path>
<path class="st1" d="M17.89,17.89l-0.04,0.03l-3.479,3.46c-0.36,0.37-0.86,0.59-1.41,0.58c-0.55,0-1.05-0.22-1.4-0.58l-8.98-9.02  C2.21,11.99,2,11.49,2,10.94v-7C2.01,3.4,2.23,2.93,2.57,2.57l1.87,1.87C4.17,4.71,4,5.08,4,5.5C4,6.33,4.67,7,5.5,7  c0.42,0,0.79-0.17,1.06-0.44L17.89,17.89z" style="opacity:0.2;fill:#FFFFFF;;"></path>
</svg>