<svg xmlns="http://www.w3.org/2000/svg" xmlns:xlink="http://www.w3.org/1999/xlink" version="1.1"  x="0px" y="0px" width="32" height="32" viewBox="0 0 24 24" style="enable-background:new 0 0 24 24;" xml:space="preserve" preserveAspectRatio="none" viewbox="0 0 32 32">

<rect class="st1" width="24" height="24" style="fill:none;;"></rect>
<path id="58129049_shock_x5F_color_focus" class="stshockcolor" d="M22,11c0-3-3-3-3-3h-1V3H6v5H5c-3,0-3,3-3,3v6h4v4h12v-4h4V11z" style="fill: rgb(40, 231, 255);" data-st="fill:#78909C;;"></path>
<path class="st0" d="M19,12c-0.553,0-1-0.448-1-1s0.447-1,1-1s1,0.448,1,1S19.553,12,19,12z M18,13H6v8h12V13z M18,3H6v5h12V3z" style="opacity:0.65;fill:#FFFFFF;;"></path>
</svg>