<svg xmlns="http://www.w3.org/2000/svg" xmlns:xlink="http://www.w3.org/1999/xlink" version="1.1"  x="0px" y="0px" width="32" height="32" viewBox="0 0 32 32" enable-background="new 0 0 32 32" xml:space="preserve" preserveAspectRatio="none" style="fill: rgb(27, 230, 255);" viewbox="0 0 32 32">
<g>
	<path d="M27.293,28.707l-7.258-7.257C18.127,23.042,15.674,24,13,24C6.935,24,2,19.064,2,13C2,6.935,6.935,2,13,2   c6.064,0,11,4.935,11,11c0,2.674-0.958,5.127-2.55,7.035l7.257,7.258L27.293,28.707z M13,4c-4.962,0-9,4.038-9,9   c0,4.963,4.038,9,9,9c4.963,0,9-4.037,9-9C22,8.038,17.963,4,13,4z" style="fill: rgb(27, 230, 255);"></path>
</g>
</svg>