<svg xmlns="http://www.w3.org/2000/svg" xmlns:xlink="http://www.w3.org/1999/xlink" version="1.1"  x="0px" y="0px" width="32" height="32" viewBox="0 0 32 32" style="fill: rgb(12, 255, 168);" xml:space="preserve" preserveAspectRatio="none" viewbox="0 0 32 32">
<path d="M14.332,16H4v-1h10.328l-3.477-3.471l0.706-0.708l4.687,4.678l-4.678,4.687l-0.708-0.706L14.332,16z M25.5,4h-20  C4.671,4,4,4.672,4,5.5V10h1V5.5C5,5.224,5.224,5,5.5,5h20C25.776,5,26,5.224,26,5.5v20c0,0.276-0.224,0.5-0.5,0.5h-20  C5.224,26,5,25.776,5,25.5V21H4v4.5C4,26.328,4.671,27,5.5,27h20c0.828,0,1.5-0.672,1.5-1.5v-20C27,4.672,26.328,4,25.5,4z" style="fill: rgb(12, 255, 168);"></path>
</svg>