<svg xmlns="http://www.w3.org/2000/svg" xmlns:xlink="http://www.w3.org/1999/xlink" version="1.1"  x="0px" y="0px" width="32" height="32" viewBox="0 0 24 24" style="enable-background:new 0 0 24 24;" xml:space="preserve" preserveAspectRatio="none" viewbox="0 0 32 32">

<path id="58185537_shock_x5F_color_focus" class="stshockcolor" d="M24,13c0,2.76-2.24,5-5,5H6c-3.31,0-6-2.69-6-6c0-3.09,2.34-5.64,5.35-5.96  C6.6,3.64,9.11,2,12,2c3.64,0,6.67,2.59,7.35,6.04C21.95,8.22,24,10.36,24,13z M10,18v4h4v-4H10z" style="fill: rgb(35, 187, 255);" data-st="fill:#82B1FF;;"></path>
<polygon class="st1" points="18,14 14,14 14,22 10,22 10,14 6,14 12,6 " style="opacity:0.4;fill:#FFFFFF;;"></polygon>
</svg>