<svg width="102" height="136" viewBox="0 0 102 136" fill="none" xmlns="http://www.w3.org/2000/svg">
<path d="M102 49.869L94.9019 62.1938L8.80167 12.3248L15.8998 0L37.4781 12.4673L47.1315 9.83133L77.8664 27.6417L80.4927 37.4018L102 49.869ZM0 121.752V36.2619H35.9875L85.1774 64.7585V121.752C85.1774 125.531 83.6818 129.155 81.0195 131.827C78.3572 134.499 74.7463 136 70.9812 136H14.1962C10.4312 136 6.82029 134.499 4.15798 131.827C1.49567 129.155 0 125.531 0 121.752ZM14.1962 121.752H70.9812V73.3075L31.6576 50.5102H14.1962V121.752Z" fill="#868686"/>
</svg>